<svg width="21" height="20" viewBox="0 0 21 20" fill="none" xmlns="http://www.w3.org/2000/svg">
<g clip-path="url(#clip0_1880_6517)">
<path d="M11.168 3.91605C11.103 3.91675 11.0385 3.90465 10.9783 3.88044C10.918 3.85623 10.863 3.82038 10.8166 3.77494C10.7702 3.7295 10.7332 3.67536 10.7077 3.61561C10.6822 3.55586 10.6687 3.49167 10.668 3.42671C10.668 1.53338 12.236 4.5265e-05 14.1666 4.5265e-05C14.2316 -0.000835405 14.2962 0.0111424 14.3566 0.0352902C14.4169 0.0594379 14.4719 0.0952792 14.5184 0.140753C14.5648 0.186228 14.6019 0.240438 14.6273 0.300267C14.6527 0.360097 14.6661 0.424366 14.6666 0.489379C14.6666 2.38271 13.1 3.91605 11.168 3.91605Z" fill="black" fill-opacity="0.4"/>
<path d="M11.168 3.91605C11.103 3.91675 11.0385 3.90465 10.9783 3.88044C10.918 3.85623 10.863 3.82038 10.8166 3.77494C10.7702 3.7295 10.7332 3.67536 10.7077 3.61561C10.6822 3.55586 10.6687 3.49167 10.668 3.42671C10.668 1.53338 12.236 4.5265e-05 14.1666 4.5265e-05C14.2316 -0.000835405 14.2962 0.0111424 14.3566 0.0352902C14.4169 0.0594379 14.4719 0.0952792 14.5184 0.140753C14.5648 0.186228 14.6019 0.240438 14.6273 0.300267C14.6527 0.360097 14.6661 0.424366 14.6666 0.489379C14.6666 2.38271 13.1 3.91605 11.168 3.91605ZM18.468 14.224C18.6613 14.3654 18.724 14.624 18.6146 14.8347C16.8546 18.2827 15.4506 20 14.168 20C13.5706 20 12.984 19.8107 12.412 19.4427C12.0014 19.1791 11.526 19.0342 11.0382 19.0238C10.5505 19.0135 10.0693 19.1381 9.64797 19.384C8.95464 19.7907 8.29464 20 7.66797 20C5.7813 20 2.66797 14.3107 2.66797 11.1894C2.66797 7.85605 4.4533 5.31471 7.16797 5.31471C8.4453 5.31471 9.54797 5.49871 10.4746 5.87338C10.8666 6.03071 11.3106 6.02005 11.6933 5.84005C12.4453 5.48538 13.4373 5.31471 14.6666 5.31471C16.1693 5.31471 17.48 6.04805 18.568 7.46805C18.6073 7.51925 18.636 7.57784 18.6523 7.64033C18.6686 7.70282 18.6722 7.76795 18.6629 7.83186C18.6536 7.89576 18.6315 7.95715 18.598 8.01238C18.5645 8.0676 18.5203 8.11555 18.468 8.15338C17.2533 9.04671 16.668 10.048 16.668 11.1894C16.668 12.3294 17.2533 13.332 18.468 14.224Z" fill="black" fill-opacity="0.4"/>
<path d="M18.468 14.2238C18.6613 14.3651 18.724 14.6238 18.6146 14.8345C16.8546 18.2825 15.4506 19.9998 14.168 19.9998C13.5706 19.9998 12.984 19.8105 12.412 19.4425C12.0014 19.1789 11.526 19.0339 11.0382 19.0235C10.5505 19.0132 10.0693 19.1379 9.64797 19.3838C8.95464 19.7905 8.29464 19.9998 7.66797 19.9998C5.7813 19.9998 2.66797 14.3105 2.66797 11.1891C2.66797 7.85579 4.4533 5.31445 7.16797 5.31445C8.4453 5.31445 9.54797 5.49845 10.4746 5.87312C10.8666 6.03045 11.3106 6.01979 11.6933 5.83979C12.4453 5.48512 13.4373 5.31445 14.6666 5.31445C16.1693 5.31445 17.48 6.04779 18.568 7.46779C18.6073 7.51899 18.636 7.57758 18.6523 7.64007C18.6686 7.70256 18.6722 7.76769 18.6629 7.8316C18.6536 7.8955 18.6315 7.95689 18.598 8.01212C18.5645 8.06735 18.5203 8.11529 18.468 8.15312C17.2533 9.04645 16.668 10.0478 16.668 11.1891C16.668 12.3291 17.2533 13.3318 18.468 14.2238Z" fill="black" fill-opacity="0.4"/>
</g>
<defs>
<clipPath id="clip0_1880_6517">
<rect width="20" height="20" fill="white" transform="translate(0.667969)"/>
</clipPath>
</defs>
</svg>
