<svg width="21" height="20" viewBox="0 0 21 20" fill="none" xmlns="http://www.w3.org/2000/svg">
<path d="M19.0046 8.36775H18.3333V8.33317H10.8333V11.6665H15.5429C14.8558 13.6069 13.0096 14.9998 10.8333 14.9998C8.07208 14.9998 5.83333 12.7611 5.83333 9.99984C5.83333 7.23859 8.07208 4.99984 10.8333 4.99984C12.1079 4.99984 13.2675 5.48067 14.1504 6.26609L16.5075 3.909C15.0192 2.52192 13.0283 1.6665 10.8333 1.6665C6.23125 1.6665 2.5 5.39775 2.5 9.99984C2.5 14.6019 6.23125 18.3332 10.8333 18.3332C15.4354 18.3332 19.1667 14.6019 19.1667 9.99984C19.1667 9.44109 19.1092 8.89567 19.0046 8.36775Z" fill="#FFC107"/>
<path d="M3.46094 6.12109L6.19885 8.129C6.93969 6.29484 8.73385 4.99984 10.8334 4.99984C12.108 4.99984 13.2676 5.48067 14.1505 6.26609L16.5076 3.909C15.0193 2.52192 13.0284 1.6665 10.8334 1.6665C7.6326 1.6665 4.85677 3.47359 3.46094 6.12109Z" fill="#FF3D00"/>
<path d="M10.8348 18.3331C12.9873 18.3331 14.9431 17.5094 16.4218 16.1698L13.8427 13.9873C12.9779 14.645 11.9212 15.0007 10.8348 14.9998C8.66727 14.9998 6.82685 13.6177 6.13352 11.689L3.41602 13.7827C4.79518 16.4815 7.59602 18.3331 10.8348 18.3331Z" fill="#4CAF50"/>
<path d="M19.0052 8.36808H18.334V8.3335H10.834V11.6668H15.5436C15.2149 12.5903 14.6229 13.3973 13.8407 13.9881L13.8419 13.9872L16.4211 16.1697C16.2386 16.3356 19.1673 14.1668 19.1673 10.0002C19.1673 9.44141 19.1098 8.896 19.0052 8.36808Z" fill="#1976D2"/>
</svg>
