<svg width="540" height="540" viewBox="0 0 540 540" fill="none" xmlns="http://www.w3.org/2000/svg">
<path d="M540 412.992H0V413.262H540V412.992Z" fill="#E0E0E0"/>
<path d="M424.635 421.2H406.426V421.47H424.635V421.2Z" fill="#E0E0E0"/>
<path d="M484.445 421.07H436.32V421.34H484.445V421.07Z" fill="#E0E0E0"/>
<path d="M346.388 422.885H286.48V423.155H346.388V422.885Z" fill="#E0E0E0"/>
<path d="M280.26 422.885H257.883V423.155H280.26V422.885Z" fill="#E0E0E0"/>
<path d="M163.685 420.8H153.857V421.07H163.685V420.8Z" fill="#E0E0E0"/>
<path d="M185.923 420.8H169.68V421.07H185.923V420.8Z" fill="#E0E0E0"/>
<path d="M144.125 425.671H72.2402V425.941H144.125V425.671Z" fill="#E0E0E0"/>
<path d="M255.961 364.824H47.4236C45.7899 364.821 44.2241 364.17 43.07 363.014C41.9158 361.858 41.2676 360.291 41.2676 358.657V65.5127C41.2818 63.8884 41.9363 62.3353 43.0889 61.1908C44.2416 60.0462 45.7992 59.4027 47.4236 59.3999H255.961C257.596 59.3999 259.165 60.0496 260.321 61.2061C261.478 62.3626 262.128 63.9312 262.128 65.5667V358.657C262.128 360.293 261.478 361.861 260.321 363.018C259.165 364.174 257.596 364.824 255.961 364.824ZM47.4236 59.6159C45.8615 59.6188 44.3644 60.2413 43.2609 61.3468C42.1574 62.4524 41.5376 63.9506 41.5376 65.5127V358.657C41.5376 360.219 42.1574 361.717 43.2609 362.823C44.3644 363.928 45.8615 364.551 47.4236 364.554H255.961C257.524 364.551 259.022 363.929 260.127 362.824C261.233 361.718 261.855 360.22 261.858 358.657V65.5127C261.855 63.9497 261.233 62.4514 260.127 61.3462C259.022 60.2409 257.524 59.6188 255.961 59.6159H47.4236Z" fill="#E0E0E0"/>
<path d="M489.574 364.824H281.026C279.392 364.821 277.825 364.17 276.669 363.015C275.513 361.859 274.862 360.292 274.859 358.657V65.5127C274.876 63.8874 275.533 62.3343 276.688 61.1901C277.842 60.0459 279.401 59.4027 281.026 59.3999H489.574C491.197 59.4055 492.752 60.0503 493.902 61.1946C495.052 62.3388 495.705 63.8903 495.719 65.5127V358.657C495.719 360.289 495.073 361.854 493.921 363.01C492.769 364.166 491.206 364.818 489.574 364.824ZM281.026 59.6159C279.463 59.6188 277.965 60.2409 276.86 61.3462C275.754 62.4514 275.132 63.9497 275.129 65.5127V358.657C275.132 360.22 275.754 361.718 276.86 362.824C277.965 363.929 279.463 364.551 281.026 364.554H489.574C491.137 364.551 492.635 363.929 493.741 362.824C494.846 361.718 495.468 360.22 495.471 358.657V65.5127C495.468 63.9497 494.846 62.4514 493.741 61.3462C492.635 60.2409 491.137 59.6188 489.574 59.6159H281.026Z" fill="#E0E0E0"/>
<path d="M343.213 281.383H292.064V412.992H343.213V281.383Z" fill="#E0E0E0"/>
<path d="M333.493 412.992H343.213V385.354H323.309L333.493 412.992Z" fill="#F0F0F0"/>
<path d="M152.053 281.383H100.904V412.992H152.053V281.383Z" fill="#E0E0E0"/>
<path d="M343.203 281.383H143.576V396.036H343.203V281.383Z" fill="#F0F0F0"/>
<path d="M246.65 289.71V361.487H335.675V289.71H246.65Z" fill="#E0E0E0"/>
<path d="M151.113 289.721V361.498H240.138V289.721H151.113Z" fill="#E0E0E0"/>
<path d="M335.676 385.354V380.073H246.651V385.354H335.676Z" fill="#E0E0E0"/>
<path d="M240.139 385.355V380.074H151.114V385.355H240.139Z" fill="#E0E0E0"/>
<path d="M335.664 375.149V369.868H246.64V375.149H335.664Z" fill="#E0E0E0"/>
<path d="M240.127 375.16V369.878H151.103V375.16H240.127Z" fill="#E0E0E0"/>
<path d="M204.433 297.443H186.84C183.054 297.443 179.309 296.672 175.831 295.177C172.353 293.683 169.216 291.495 166.611 288.749H224.64C222.038 291.494 218.905 293.68 215.431 295.175C211.957 296.67 208.215 297.441 204.433 297.443Z" fill="#F0F0F0"/>
<path d="M300.866 297.443H283.262C279.476 297.444 275.73 296.674 272.252 295.179C268.774 293.684 265.637 291.496 263.033 288.749H321.094C318.49 291.496 315.353 293.684 311.875 295.179C308.397 296.674 304.651 297.444 300.866 297.443Z" fill="#F0F0F0"/>
<path d="M153.296 412.992H143.576V385.354H163.481L153.296 412.992Z" fill="#F0F0F0"/>
<path d="M342.112 79.9092H73.8184V233.161H342.112V79.9092Z" fill="#E0E0E0"/>
<path d="M356.95 75.1787H64.7994C64.4356 75.1787 64.0867 75.3232 63.8295 75.5804C63.5723 75.8377 63.4278 76.1865 63.4278 76.5503C63.4264 76.7313 63.4608 76.9109 63.5291 77.0785C63.5974 77.2462 63.6982 77.3987 63.8257 77.5272C63.9532 77.6557 64.1049 77.7577 64.272 77.8273C64.4391 77.8969 64.6183 77.9327 64.7994 77.9327H356.95C357.131 77.9327 357.31 77.8969 357.478 77.8273C357.645 77.7577 357.796 77.6557 357.924 77.5272C358.051 77.3987 358.152 77.2462 358.221 77.0785C358.289 76.9109 358.323 76.7313 358.322 76.5503C358.322 76.1865 358.177 75.8377 357.92 75.5804C357.663 75.3232 357.314 75.1787 356.95 75.1787Z" fill="#E0E0E0"/>
<path d="M347.986 79.9092H76.5605V233.161H347.986V79.9092Z" fill="#E6E6E6"/>
<path d="M342.112 233.161H73.8184V244.08H342.112V233.161Z" fill="#E0E0E0"/>
<path d="M357.771 233.161H86.3457V244.08H357.771V233.161Z" fill="#E6E6E6"/>
<path d="M339.746 224.931V88.1387L84.7797 88.1387V224.931L339.746 224.931Z" fill="#F5F5F5"/>
<path d="M210.967 224.931L259.254 88.1387H282.042L233.755 224.931H210.967Z" fill="#FAFAFA"/>
<path d="M238.658 224.931L286.945 88.1387H295.823L247.547 224.931H238.658Z" fill="#FAFAFA"/>
<path d="M339.746 224.931V88.1387H338.699V224.931H339.746Z" fill="#E0E0E0"/>
<path d="M84.8775 72.7163H70.7188V204.714H84.8775V72.7163Z" fill="#EBEBEB"/>
<path d="M90.3959 72.7163H79.3691V204.714H90.3959V72.7163Z" fill="#E0E0E0"/>
<path d="M99.0358 72.7163H84.877V204.714H99.0358V72.7163Z" fill="#EBEBEB"/>
<path d="M104.554 72.7163H93.5273V204.714H104.554V72.7163Z" fill="#E0E0E0"/>
<path d="M113.194 72.7163H99.0352V204.714H113.194V72.7163Z" fill="#EBEBEB"/>
<path d="M334.476 72.7163H326.322V204.714H334.476V72.7163Z" fill="#EBEBEB"/>
<path d="M337.674 72.7163H331.312V204.714H337.674V72.7163Z" fill="#E0E0E0"/>
<path d="M342.64 72.7163H334.486V204.714H342.64V72.7163Z" fill="#EBEBEB"/>
<path d="M345.826 72.7163H339.465V204.714H345.826V72.7163Z" fill="#E0E0E0"/>
<path d="M350.795 72.7163H342.641V204.714H350.795V72.7163Z" fill="#EBEBEB"/>
<path d="M425.013 129.978H406.912V179.366H425.013V129.978Z" fill="#E6E6E6"/>
<path d="M400.032 187.607L395.842 199.023H400.032L425.661 187.607H400.032Z" fill="#F0F0F0"/>
<path d="M395.842 187.607V199.023L421.481 187.607H395.842Z" fill="#E0E0E0"/>
<path d="M443.87 187.607L439.68 199.023H443.87L469.499 187.607H443.87Z" fill="#F0F0F0"/>
<path d="M439.68 187.607V199.023L465.319 187.607H439.68Z" fill="#E0E0E0"/>
<path d="M377.039 188.136H404.914V179.442H377.039V188.136Z" fill="#E0E0E0"/>
<path d="M484.444 179.442H404.902V188.136H484.444V179.442Z" fill="#F0F0F0"/>
<path d="M455.165 179.366H411.112L405.658 119.523H449.711L455.165 179.366Z" fill="#E0E0E0"/>
<path d="M457.446 179.366H413.392L407.949 119.523H452.002L457.446 179.366Z" fill="#F0F0F0"/>
<path d="M419.418 172.746L415.174 126.144H445.975L450.22 172.746H419.418Z" fill="#FAFAFA"/>
<path d="M170.002 262.17C170.002 262.17 151.005 229.435 177.357 203.375C177.357 203.375 184.237 207.857 184.129 213.883C184.021 219.909 176.763 221.443 178.329 226.454C179.895 231.465 186.742 236.423 182.239 240.581C177.735 244.739 182.962 248.432 182.66 253.541C182.357 258.649 170.002 262.17 170.002 262.17Z" fill="#E0E0E0"/>
<path d="M171.44 265.161C171.44 265.161 179.14 228.106 145.92 211.68C145.92 211.68 140.811 218.106 142.809 223.786C144.807 229.467 152.173 228.636 152.281 233.895C152.389 239.155 147.442 246.002 153.015 248.529C158.588 251.056 154.808 256.219 156.709 260.949C158.61 265.68 171.44 265.161 171.44 265.161Z" fill="#E0E0E0"/>
<path d="M142.344 256.954C142.344 256.954 142.97 281.383 167.184 281.383C191.397 281.383 192.024 256.954 192.024 256.954H142.344Z" fill="#F0F0F0"/>
<path d="M428.059 412.992H430.532L437.573 378.259L438.815 372.178L446.494 334.378H475.967L491.941 412.992H494.414L478.138 332.877C478.081 332.605 477.932 332.36 477.715 332.185C477.499 332.01 477.229 331.915 476.95 331.916H445.511C445.234 331.913 444.964 332.008 444.749 332.184C444.534 332.359 444.387 332.605 444.334 332.877L437.584 366.12L436.321 372.2L428.059 412.992Z" fill="#EBEBEB"/>
<path d="M380.744 412.992H383.217L399.191 334.336H428.664L436.321 372.201L437.552 378.259L444.605 412.992H447.121L438.837 372.179L437.585 366.12L430.835 332.878C430.777 332.605 430.628 332.361 430.412 332.186C430.195 332.011 429.925 331.916 429.647 331.917H398.208C397.929 331.916 397.659 332.011 397.443 332.186C397.226 332.361 397.077 332.605 397.02 332.878L380.744 412.992Z" fill="#EBEBEB"/>
<path d="M453.395 333.126H399.244C394.274 333.124 389.503 331.175 385.953 327.696C382.404 324.217 380.359 319.486 380.257 314.517L378.238 232.2C378.211 230.368 378.547 228.55 379.228 226.85C379.91 225.15 380.921 223.602 382.205 222.296C383.489 220.99 385.02 219.951 386.708 219.241C388.396 218.531 390.209 218.164 392.04 218.16H425.985C429.383 218.159 432.663 219.409 435.199 221.672C437.734 223.935 439.348 227.052 439.733 230.428L453.395 333.126Z" fill="#E6E6E6"/>
<path d="M423.857 322.747H476.853C478.821 322.747 480.708 323.529 482.099 324.92C483.491 326.312 484.273 328.199 484.273 330.167V330.426C484.273 331.142 483.988 331.829 483.482 332.335C482.975 332.841 482.289 333.126 481.573 333.126H423.857V322.747Z" fill="#E6E6E6"/>
<path d="M270.001 461.765C385.65 461.765 479.402 456.291 479.402 449.539C479.402 442.787 385.65 437.313 270.001 437.313C154.352 437.313 60.5996 442.787 60.5996 449.539C60.5996 456.291 154.352 461.765 270.001 461.765Z" fill="#F5F5F5"/>
<path d="M201.474 138.542C201.478 136.531 201.315 134.522 200.988 132.538C199.54 123.765 195.047 115.784 188.297 109.996C181.548 104.209 172.975 100.986 164.084 100.894H163.76C157.796 100.897 151.917 102.319 146.611 105.042C141.304 107.765 136.721 111.711 133.239 116.554C132.667 117.342 132.159 118.152 131.641 118.962C131.599 119.015 131.562 119.073 131.533 119.135C127.988 124.998 126.12 131.723 126.133 138.575V138.65C126.155 146.614 128.701 154.366 133.404 160.793C138.107 167.219 144.726 171.99 152.31 174.42C159.894 176.849 168.054 176.813 175.616 174.316C183.178 171.818 189.754 166.989 194.4 160.52C194.961 159.732 195.48 158.933 195.987 158.112C196.03 158.058 196.066 158.001 196.095 157.939C199.636 152.091 201.497 145.379 201.474 138.542ZM127.742 137.689C127.867 131.523 129.59 125.494 132.742 120.193H144.525C142.725 125.853 141.782 131.75 141.728 137.689H127.742ZM146.178 120.193H162.982V137.689H143.348C143.384 131.746 144.338 125.844 146.178 120.193ZM164.602 118.573V102.46C166.938 102.671 169.175 103.503 171.082 104.868C175.089 107.611 178.448 112.428 180.802 118.573H164.602ZM181.386 120.193C182.722 124.239 183.591 128.424 183.978 132.667C184.14 134.352 184.215 136.026 184.237 137.689H164.602V120.193H181.386ZM160.606 102.913C161.382 102.693 162.178 102.555 162.982 102.503V118.606H146.782C149.806 110.462 154.71 104.544 160.606 102.881V102.913ZM162.982 139.342V156.838H146.21C144.874 152.782 144.011 148.585 143.64 144.331C143.488 142.646 143.402 140.972 143.38 139.309L162.982 139.342ZM162.982 158.458V174.571C160.647 174.358 158.41 173.527 156.502 172.163C152.506 169.42 149.148 164.603 146.782 158.458H162.982ZM166.978 174.15C166.203 174.371 165.407 174.509 164.602 174.56V158.425H180.802C177.778 166.536 172.875 172.465 166.978 174.118V174.15ZM164.602 156.87V139.32H184.237C184.206 145.263 183.252 151.166 181.407 156.816L164.602 156.87ZM185.857 139.32H199.897C199.766 145.486 198.044 151.513 194.896 156.816H183.06C184.86 151.156 185.803 145.259 185.857 139.32ZM199.897 137.7H185.857C185.857 135.994 185.749 134.266 185.587 132.527C185.218 128.341 184.389 124.208 183.114 120.204H194.875C197.148 124.063 198.682 128.311 199.4 132.732C199.657 134.373 199.809 136.029 199.854 137.689L199.897 137.7ZM184.917 109.264C188.447 111.806 191.491 114.963 193.903 118.584H182.52C180.1 111.899 176.461 106.607 172 103.54L171.655 103.313C176.417 104.379 180.914 106.4 184.874 109.253L184.917 109.264ZM155.898 103.334C151.351 106.326 147.614 111.769 145.098 118.584H133.758L134.546 117.428C139.675 110.269 147.26 105.248 155.854 103.324L155.898 103.334ZM127.818 139.32H141.804C141.804 141.026 141.912 142.754 142.074 144.493C142.448 148.678 143.277 152.811 144.547 156.816H132.721C130.443 152.959 128.909 148.71 128.196 144.288C127.927 142.645 127.775 140.985 127.742 139.32H127.818ZM133.801 158.436H145.098C147.517 165.121 151.156 170.413 155.617 173.48L155.973 173.707C146.899 171.646 138.962 166.18 133.801 158.436ZM171.72 173.675C176.256 170.694 179.992 165.24 182.52 158.425H193.838C193.579 158.814 193.32 159.203 193.05 159.581C187.917 166.744 180.322 171.762 171.72 173.675Z" fill="#0095FF"/>
<path opacity="0.8" d="M201.474 138.542C201.478 136.531 201.315 134.522 200.988 132.538C199.54 123.765 195.047 115.784 188.297 109.996C181.548 104.209 172.975 100.986 164.084 100.894H163.76C157.796 100.897 151.917 102.319 146.611 105.042C141.304 107.765 136.721 111.711 133.239 116.554C132.667 117.342 132.159 118.152 131.641 118.962C131.599 119.015 131.562 119.073 131.533 119.135C127.988 124.998 126.12 131.723 126.133 138.575V138.65C126.155 146.614 128.701 154.366 133.404 160.793C138.107 167.219 144.726 171.99 152.31 174.42C159.894 176.849 168.054 176.813 175.616 174.316C183.178 171.818 189.754 166.989 194.4 160.52C194.961 159.732 195.48 158.933 195.987 158.112C196.03 158.058 196.066 158.001 196.095 157.939C199.636 152.091 201.497 145.379 201.474 138.542ZM127.742 137.689C127.867 131.523 129.59 125.494 132.742 120.193H144.525C142.725 125.853 141.782 131.75 141.728 137.689H127.742ZM146.178 120.193H162.982V137.689H143.348C143.384 131.746 144.338 125.844 146.178 120.193ZM164.602 118.573V102.46C166.938 102.671 169.175 103.503 171.082 104.868C175.089 107.611 178.448 112.428 180.802 118.573H164.602ZM181.386 120.193C182.722 124.239 183.591 128.424 183.978 132.667C184.14 134.352 184.215 136.026 184.237 137.689H164.602V120.193H181.386ZM160.606 102.913C161.382 102.693 162.178 102.555 162.982 102.503V118.606H146.782C149.806 110.462 154.71 104.544 160.606 102.881V102.913ZM162.982 139.342V156.838H146.21C144.874 152.782 144.011 148.585 143.64 144.331C143.488 142.646 143.402 140.972 143.38 139.309L162.982 139.342ZM162.982 158.458V174.571C160.647 174.358 158.41 173.527 156.502 172.163C152.506 169.42 149.148 164.603 146.782 158.458H162.982ZM166.978 174.15C166.203 174.371 165.407 174.509 164.602 174.56V158.425H180.802C177.778 166.536 172.875 172.465 166.978 174.118V174.15ZM164.602 156.87V139.32H184.237C184.206 145.263 183.252 151.166 181.407 156.816L164.602 156.87ZM185.857 139.32H199.897C199.766 145.486 198.044 151.513 194.896 156.816H183.06C184.86 151.156 185.803 145.259 185.857 139.32ZM199.897 137.7H185.857C185.857 135.994 185.749 134.266 185.587 132.527C185.218 128.341 184.389 124.208 183.114 120.204H194.875C197.148 124.063 198.682 128.311 199.4 132.732C199.657 134.373 199.809 136.029 199.854 137.689L199.897 137.7ZM184.917 109.264C188.447 111.806 191.491 114.963 193.903 118.584H182.52C180.1 111.899 176.461 106.607 172 103.54L171.655 103.313C176.417 104.379 180.914 106.4 184.874 109.253L184.917 109.264ZM155.898 103.334C151.351 106.326 147.614 111.769 145.098 118.584H133.758L134.546 117.428C139.675 110.269 147.26 105.248 155.854 103.324L155.898 103.334ZM127.818 139.32H141.804C141.804 141.026 141.912 142.754 142.074 144.493C142.448 148.678 143.277 152.811 144.547 156.816H132.721C130.443 152.959 128.909 148.71 128.196 144.288C127.927 142.645 127.775 140.985 127.742 139.32H127.818ZM133.801 158.436H145.098C147.517 165.121 151.156 170.413 155.617 173.48L155.973 173.707C146.899 171.646 138.962 166.18 133.801 158.436ZM171.72 173.675C176.256 170.694 179.992 165.24 182.52 158.425H193.838C193.579 158.814 193.32 159.203 193.05 159.581C187.917 166.744 180.322 171.762 171.72 173.675Z" fill="#FAFAFA"/>
<path d="M447.433 156.492H107.881V238.767H447.433V156.492Z" fill="#0095FF"/>
<path opacity="0.6" d="M447.433 156.492H107.881V238.767H447.433V156.492Z" fill="#FAFAFA"/>
<path d="M439.775 164.149H100.223V246.424H439.775V164.149Z" fill="#0095FF"/>
<path opacity="0.3" d="M439.775 164.149H100.223V246.424H439.775V164.149Z" fill="black"/>
<path d="M432.118 171.807H92.5664V254.081H432.118V171.807Z" fill="#0095FF"/>
<path opacity="0.1" d="M432.118 171.807H92.5664V254.081H432.118V171.807Z" fill="#FAFAFA"/>
<path d="M415.918 237.881V188.006L108.766 188.006V237.881L415.918 237.881Z" fill="#0095FF"/>
<path opacity="0.9" d="M415.918 237.881V188.006L108.766 188.006V237.881L415.918 237.881Z" fill="#FAFAFA"/>
<path d="M364.252 188.006V237.881H366.056V188.006H364.252Z" fill="#0095FF"/>
<path opacity="0.6" d="M364.252 188.006V237.881H366.056V188.006H364.252Z" fill="#FAFAFA"/>
<path d="M116.424 194.886V231.001H118.227V194.886H116.424Z" fill="#0095FF"/>
<path opacity="0.6" d="M116.424 194.886V231.001H118.227V194.886H116.424Z" fill="#FAFAFA"/>
<path d="M389.264 219.24C387.953 219.24 386.663 218.916 385.508 218.298C384.352 217.68 383.367 216.786 382.639 215.696C381.911 214.606 381.463 213.354 381.335 212.05C381.207 210.746 381.402 209.43 381.904 208.219C382.405 207.008 383.198 205.94 384.211 205.109C385.224 204.277 386.426 203.708 387.711 203.453C388.997 203.197 390.325 203.262 391.579 203.642C392.834 204.022 393.975 204.706 394.902 205.632C396.017 206.747 396.777 208.167 397.084 209.714C397.392 211.26 397.234 212.863 396.631 214.32C396.027 215.777 395.005 217.022 393.694 217.898C392.382 218.774 390.841 219.241 389.264 219.24ZM389.264 205.47C387.919 205.47 386.617 205.937 385.578 206.791C384.539 207.644 383.828 208.831 383.566 210.15C383.305 211.469 383.509 212.838 384.143 214.023C384.778 215.209 385.804 216.137 387.047 216.651C388.29 217.164 389.672 217.231 390.958 216.839C392.244 216.447 393.355 215.622 394.101 214.503C394.846 213.384 395.181 212.041 395.047 210.703C394.914 209.365 394.32 208.115 393.368 207.166C392.835 206.616 392.197 206.178 391.492 205.877C390.788 205.577 390.03 205.42 389.264 205.416V205.47Z" fill="#0095FF"/>
<path d="M399.6 222.631C399.457 222.631 399.316 222.602 399.184 222.546C399.053 222.491 398.933 222.409 398.833 222.307L393.379 216.853C393.266 216.757 393.175 216.637 393.11 216.503C393.045 216.369 393.009 216.224 393.003 216.075C392.997 215.926 393.022 215.778 393.076 215.639C393.131 215.501 393.213 215.375 393.318 215.269C393.424 215.164 393.549 215.082 393.688 215.028C393.827 214.973 393.975 214.948 394.124 214.954C394.272 214.96 394.418 214.996 394.552 215.061C394.686 215.126 394.805 215.218 394.902 215.331L400.356 220.785C400.557 220.987 400.67 221.261 400.67 221.546C400.67 221.831 400.557 222.105 400.356 222.307C400.157 222.511 399.885 222.627 399.6 222.631Z" fill="#0095FF"/>
<g opacity="0.6">
<path d="M389.264 219.24C387.953 219.24 386.663 218.916 385.508 218.298C384.352 217.68 383.367 216.786 382.639 215.696C381.911 214.606 381.463 213.354 381.335 212.05C381.207 210.746 381.402 209.43 381.904 208.219C382.405 207.008 383.198 205.94 384.211 205.109C385.224 204.277 386.426 203.708 387.711 203.453C388.997 203.197 390.325 203.262 391.579 203.642C392.834 204.022 393.975 204.706 394.902 205.632C396.017 206.747 396.777 208.167 397.084 209.714C397.392 211.26 397.234 212.863 396.631 214.32C396.027 215.777 395.005 217.022 393.694 217.898C392.382 218.774 390.841 219.241 389.264 219.24ZM389.264 205.47C387.919 205.47 386.617 205.937 385.578 206.791C384.539 207.644 383.828 208.831 383.566 210.15C383.305 211.469 383.509 212.838 384.143 214.023C384.778 215.209 385.804 216.137 387.047 216.651C388.29 217.164 389.672 217.231 390.958 216.839C392.244 216.447 393.355 215.622 394.101 214.503C394.846 213.384 395.181 212.041 395.047 210.703C394.914 209.365 394.32 208.115 393.368 207.166C392.835 206.616 392.197 206.178 391.492 205.877C390.788 205.577 390.03 205.42 389.264 205.416V205.47Z" fill="#FAFAFA"/>
<path d="M399.6 222.631C399.457 222.631 399.316 222.602 399.184 222.546C399.053 222.491 398.933 222.409 398.833 222.307L393.379 216.853C393.266 216.757 393.175 216.637 393.11 216.503C393.045 216.369 393.009 216.224 393.003 216.075C392.997 215.926 393.022 215.778 393.076 215.639C393.131 215.501 393.213 215.375 393.318 215.269C393.424 215.164 393.549 215.082 393.688 215.028C393.827 214.973 393.975 214.948 394.124 214.954C394.272 214.96 394.418 214.996 394.552 215.061C394.686 215.126 394.805 215.218 394.902 215.331L400.356 220.785C400.557 220.987 400.67 221.261 400.67 221.546C400.67 221.831 400.557 222.105 400.356 222.307C400.157 222.511 399.885 222.627 399.6 222.631Z" fill="#FAFAFA"/>
</g>
<path d="M315.996 106.758H282.041V107.601H315.996V106.758Z" fill="#0095FF"/>
<path d="M315.996 110.333H282.041V111.175H315.996V110.333Z" fill="#0095FF"/>
<path d="M315.996 113.918H282.041V114.761H315.996V113.918Z" fill="#0095FF"/>
<path d="M315.996 117.493H282.041V118.336H315.996V117.493Z" fill="#0095FF"/>
<path d="M315.996 121.068H282.041V121.91H315.996V121.068Z" fill="#0095FF"/>
<path d="M304.181 124.654H282.041V125.496H304.181V124.654Z" fill="#0095FF"/>
<g opacity="0.5">
<path d="M315.996 106.758H282.041V107.601H315.996V106.758Z" fill="#FAFAFA"/>
<path d="M315.996 110.333H282.041V111.175H315.996V110.333Z" fill="#FAFAFA"/>
<path d="M315.996 113.919H282.041V114.761H315.996V113.919Z" fill="#FAFAFA"/>
<path d="M315.996 117.494H282.041V118.336H315.996V117.494Z" fill="#FAFAFA"/>
<path d="M315.996 121.068H282.041V121.911H315.996V121.068Z" fill="#FAFAFA"/>
<path d="M304.181 124.654H282.041V125.496H304.181V124.654Z" fill="#FAFAFA"/>
</g>
<path d="M111.618 261.188H75.4375V261.727H111.618V261.188Z" fill="#0095FF"/>
<path d="M111.618 263.477H75.4375V264.017H111.618V263.477Z" fill="#0095FF"/>
<path d="M111.618 265.767H75.4375V266.307H111.618V265.767Z" fill="#0095FF"/>
<path d="M111.618 268.056H75.4375V268.596H111.618V268.056Z" fill="#0095FF"/>
<path d="M111.618 270.346H75.4375V270.886H111.618V270.346Z" fill="#0095FF"/>
<path d="M98.1823 272.646H75.4375V273.186H98.1823V272.646Z" fill="#0095FF"/>
<g opacity="0.4">
<path d="M111.618 261.188H75.4375V261.727H111.618V261.188Z" fill="#FAFAFA"/>
<path d="M111.618 263.477H75.4375V264.017H111.618V263.477Z" fill="#FAFAFA"/>
<path d="M111.618 265.767H75.4375V266.307H111.618V265.767Z" fill="#FAFAFA"/>
<path d="M111.618 268.056H75.4375V268.596H111.618V268.056Z" fill="#FAFAFA"/>
<path d="M111.618 270.346H75.4375V270.886H111.618V270.346Z" fill="#FAFAFA"/>
<path d="M98.1823 272.646H75.4375V273.186H98.1823V272.646Z" fill="#FAFAFA"/>
</g>
<path d="M230.525 112.061C228.715 112.061 226.978 112.78 225.698 114.06C224.418 115.34 223.699 117.076 223.699 118.887V141.405C223.699 143.215 224.418 144.951 225.698 146.231C226.978 147.511 228.715 148.23 230.525 148.23C232.335 148.23 234.071 147.511 235.351 146.231C236.631 144.951 237.35 143.215 237.35 141.405V118.887C237.35 117.076 236.631 115.34 235.351 114.06C234.071 112.78 232.335 112.061 230.525 112.061Z" fill="#0095FF"/>
<path opacity="0.2" d="M230.525 112.061C228.715 112.061 226.978 112.78 225.698 114.06C224.418 115.34 223.699 117.076 223.699 118.887V141.405C223.699 143.215 224.418 144.951 225.698 146.231C226.978 147.511 228.715 148.23 230.525 148.23C232.335 148.23 234.071 147.511 235.351 146.231C236.631 144.951 237.35 143.215 237.35 141.405V118.887C237.35 117.076 236.631 115.34 235.351 114.06C234.071 112.78 232.335 112.061 230.525 112.061Z" fill="#FAFAFA"/>
<path d="M247.633 98.6363C245.828 98.6449 244.101 99.3678 242.828 100.647C241.555 101.926 240.84 103.657 240.84 105.462V141.404C240.84 143.215 241.559 144.951 242.839 146.231C244.119 147.511 245.855 148.23 247.665 148.23C249.476 148.23 251.212 147.511 252.492 146.231C253.772 144.951 254.491 143.215 254.491 141.404V105.462C254.491 104.563 254.313 103.673 253.968 102.842C253.623 102.012 253.118 101.258 252.48 100.624C251.843 99.9897 251.087 99.4877 250.255 99.1465C249.423 98.8054 248.532 98.632 247.633 98.6363Z" fill="#0095FF"/>
<path opacity="0.3" d="M247.633 98.6363C245.828 98.6449 244.101 99.3678 242.828 100.647C241.555 101.926 240.84 103.657 240.84 105.462V141.404C240.84 143.215 241.559 144.951 242.839 146.231C244.119 147.511 245.855 148.23 247.665 148.23C249.476 148.23 251.212 147.511 252.492 146.231C253.772 144.951 254.491 143.215 254.491 141.404V105.462C254.491 104.563 254.313 103.673 253.968 102.842C253.623 102.012 253.118 101.258 252.48 100.624C251.843 99.9897 251.087 99.4877 250.255 99.1465C249.423 98.8054 248.532 98.632 247.633 98.6363Z" fill="black"/>
<path d="M264.73 125.485C262.92 125.485 261.184 126.204 259.903 127.485C258.623 128.765 257.904 130.501 257.904 132.311V141.405C257.904 143.215 258.623 144.951 259.903 146.231C261.184 147.511 262.92 148.23 264.73 148.23C265.627 148.232 266.516 148.056 267.345 147.714C268.175 147.371 268.928 146.869 269.563 146.235C270.198 145.601 270.702 144.848 271.046 144.019C271.389 143.19 271.566 142.302 271.566 141.405V132.311C271.566 131.414 271.389 130.525 271.046 129.696C270.702 128.868 270.198 128.115 269.563 127.481C268.928 126.847 268.175 126.344 267.345 126.002C266.516 125.659 265.627 125.484 264.73 125.485Z" fill="#0095FF"/>
<path opacity="0.6" d="M264.73 125.485C262.92 125.485 261.184 126.204 259.903 127.485C258.623 128.765 257.904 130.501 257.904 132.311V141.405C257.904 143.215 258.623 144.951 259.903 146.231C261.184 147.511 262.92 148.23 264.73 148.23C265.627 148.232 266.516 148.056 267.345 147.714C268.175 147.371 268.928 146.869 269.563 146.235C270.198 145.601 270.702 144.848 271.046 144.019C271.389 143.19 271.566 142.302 271.566 141.405V132.311C271.566 131.414 271.389 130.525 271.046 129.696C270.702 128.868 270.198 128.115 269.563 127.481C268.928 126.847 268.175 126.344 267.345 126.002C266.516 125.659 265.627 125.484 264.73 125.485Z" fill="#FAFAFA"/>
<path d="M408.898 279.861H436.492L389.383 231.001L408.898 279.861Z" fill="#0095FF"/>
<g opacity="0.1">
<path d="M408.898 279.861H436.492L389.383 231.001L408.898 279.861Z" fill="black"/>
</g>
<g style="mix-blend-mode:multiply">
<path d="M382.373 254.07L389.382 231.001L393.357 254.07H382.373Z" fill="#0095FF"/>
</g>
<path d="M389.383 231.001V299.365L394.264 294.495L408.898 279.861L389.383 231.001Z" fill="#0095FF"/>
<path opacity="0.3" d="M389.383 231.001V299.365L394.264 294.495L408.898 279.861L389.383 231.001Z" fill="#FAFAFA"/>
<path d="M438.177 84.3589H377.697C374.632 84.3702 371.695 85.5922 369.527 87.7586C367.358 89.9251 366.133 92.8605 366.119 95.9257V127.159C366.133 130.223 367.357 133.156 369.523 135.323C371.689 137.489 374.623 138.712 377.686 138.726H422.063L421.739 149.645L432.939 138.726H438.155C441.22 138.715 444.157 137.493 446.325 135.326C448.494 133.16 449.719 130.224 449.733 127.159V95.9257C449.719 92.8642 448.497 89.932 446.333 87.7662C444.169 85.6004 441.238 84.3759 438.177 84.3589ZM376.336 97.6645C376.336 96.8052 376.677 95.9811 377.285 95.3735C377.893 94.7658 378.717 94.4245 379.576 94.4245H393.497C394.356 94.4245 395.181 94.7658 395.788 95.3735C396.396 95.9811 396.737 96.8052 396.737 97.6645C396.737 98.5238 396.396 99.3479 395.788 99.9555C395.181 100.563 394.356 100.904 393.497 100.904H379.565C378.708 100.902 377.886 100.559 377.281 99.9517C376.676 99.3444 376.336 98.5219 376.336 97.6645ZM434.742 127.904H410.68C410.214 127.986 409.736 127.965 409.28 127.842C408.823 127.719 408.399 127.498 408.037 127.194C407.675 126.89 407.384 126.51 407.184 126.082C406.984 125.653 406.881 125.186 406.881 124.713C406.881 124.24 406.984 123.773 407.184 123.345C407.384 122.916 407.675 122.536 408.037 122.232C408.399 121.928 408.823 121.707 409.28 121.584C409.736 121.461 410.214 121.44 410.68 121.522H434.742C435.208 121.44 435.686 121.461 436.143 121.584C436.599 121.707 437.023 121.928 437.385 122.232C437.747 122.536 438.039 122.916 438.238 123.345C438.438 123.773 438.541 124.24 438.541 124.713C438.541 125.186 438.438 125.653 438.238 126.082C438.039 126.51 437.747 126.89 437.385 127.194C437.023 127.498 436.599 127.719 436.143 127.842C435.686 127.965 435.208 127.986 434.742 127.904ZM434.742 114.394H382.805C382.339 114.475 381.861 114.454 381.405 114.331C380.948 114.208 380.524 113.987 380.162 113.683C379.8 113.379 379.509 112.999 379.309 112.571C379.11 112.142 379.006 111.675 379.006 111.202C379.006 110.729 379.11 110.262 379.309 109.834C379.509 109.405 379.8 109.026 380.162 108.721C380.524 108.417 380.948 108.196 381.405 108.073C381.861 107.951 382.339 107.929 382.805 108.011H434.742C435.208 107.929 435.686 107.951 436.143 108.073C436.599 108.196 437.023 108.417 437.385 108.721C437.747 109.026 438.039 109.405 438.238 109.834C438.438 110.262 438.541 110.729 438.541 111.202C438.541 111.675 438.438 112.142 438.238 112.571C438.039 112.999 437.747 113.379 437.385 113.683C437.023 113.987 436.599 114.208 436.143 114.331C435.686 114.454 435.208 114.475 434.742 114.394ZM434.742 100.883H403.995C403.135 100.883 402.311 100.542 401.704 99.9339C401.096 99.3263 400.755 98.5022 400.755 97.6429C400.755 96.7836 401.096 95.9595 401.704 95.3519C402.311 94.7442 403.135 94.4029 403.995 94.4029H434.742C435.602 94.4029 436.426 94.7442 437.033 95.3519C437.641 95.9595 437.982 96.7836 437.982 97.6429C437.982 98.5022 437.641 99.3263 437.033 99.9339C436.426 100.542 435.602 100.883 434.742 100.883Z" fill="#0095FF"/>
<path d="M343.593 183.363C341.01 176.267 337.066 169.744 331.983 164.16H246.112C241.029 169.744 237.085 176.267 234.502 183.363L246.382 242.503C255.47 252.356 267.689 258.758 280.963 260.622C294.236 262.487 307.746 259.698 319.197 252.731C330.648 245.764 339.334 235.047 343.779 222.402C348.224 209.757 348.154 195.962 343.582 183.363H343.593Z" fill="#0095FF"/>
<path opacity="0.1" d="M343.593 183.363C341.01 176.267 337.066 169.744 331.983 164.16H246.112C241.029 169.744 237.085 176.267 234.502 183.363L246.382 242.503C255.47 252.356 267.689 258.758 280.963 260.622C294.236 262.487 307.746 259.698 319.197 252.731C330.648 245.764 339.334 235.047 343.779 222.402C348.224 209.757 348.154 195.962 343.582 183.363H343.593Z" fill="#FAFAFA"/>
<path d="M347.016 205.859C346.403 219.496 340.986 232.476 331.723 242.503H246.403C239.2 234.676 234.284 225.023 232.189 214.595C230.094 204.167 230.902 193.363 234.523 183.362H343.603C346.223 190.56 347.383 198.208 347.016 205.859Z" fill="#0095FF"/>
<path opacity="0.9" d="M347.016 205.859C346.403 219.496 340.986 232.476 331.723 242.503H246.403C239.2 234.676 234.284 225.023 232.189 214.595C230.094 204.167 230.902 193.363 234.523 183.362H343.603C346.223 190.56 347.383 198.208 347.016 205.859Z" fill="#FAFAFA"/>
<path opacity="0.3" d="M347.016 205.859C346.344 220.209 340.361 233.797 330.23 243.983C320.099 254.168 306.543 260.223 292.197 260.972C277.85 261.72 263.738 257.109 252.602 248.033C241.466 238.957 234.102 226.065 231.94 211.863C229.779 197.66 232.975 183.162 240.907 171.184C248.839 159.206 260.94 150.605 274.86 147.052C288.78 143.499 303.523 145.247 316.226 151.958C328.928 158.668 338.682 169.862 343.592 183.362C346.212 190.561 347.376 198.207 347.016 205.859Z" fill="white"/>
<path opacity="0.4" d="M321.754 155.261L238.313 231.358C237.895 230.587 237.485 229.81 237.082 229.025C234.531 223.918 232.758 218.457 231.822 212.825L303.891 147.096C310.268 148.777 316.31 151.538 321.754 155.261Z" fill="white"/>
<path opacity="0.4" d="M344.078 184.756L265.681 256.295C257.549 252.707 250.351 247.297 244.643 240.484L330.308 162.356C336.551 168.671 341.262 176.334 344.078 184.756Z" fill="white"/>
<path d="M346.994 169.722C340.376 158.246 330.503 148.992 318.623 143.129C306.744 137.266 293.392 135.059 280.258 136.786C267.124 138.513 254.797 144.098 244.838 152.833C234.878 161.568 227.733 173.061 224.307 185.858C220.881 198.654 221.328 212.18 225.591 224.722C229.854 237.265 237.742 248.261 248.256 256.32C258.771 264.379 271.439 269.137 284.659 269.994C297.878 270.851 311.055 267.767 322.522 261.133C337.879 252.248 349.083 237.631 353.671 220.491C358.26 203.352 355.858 185.092 346.994 169.722ZM243.314 229.597C238.093 220.554 235.67 210.165 236.352 199.744C237.035 189.324 240.792 179.34 247.149 171.054C253.505 162.769 262.176 156.555 272.064 153.197C281.953 149.84 292.615 149.49 302.702 152.192C312.789 154.894 321.849 160.526 328.735 168.377C335.621 176.227 340.025 185.944 341.389 196.297C342.753 206.65 341.017 217.176 336.399 226.542C331.782 235.909 324.491 243.696 315.448 248.918C309.443 252.386 302.815 254.637 295.941 255.543C289.067 256.449 282.082 255.992 275.384 254.197C268.687 252.403 262.408 249.307 256.908 245.086C251.407 240.865 246.792 235.602 243.325 229.597H243.314Z" fill="#0095FF"/>
<path opacity="0.1" d="M346.994 169.722C340.376 158.246 330.503 148.992 318.623 143.129C306.744 137.266 293.392 135.059 280.258 136.786C267.124 138.513 254.797 144.098 244.838 152.833C234.878 161.568 227.733 173.061 224.307 185.858C220.881 198.654 221.328 212.18 225.591 224.722C229.854 237.265 237.742 248.261 248.256 256.32C258.771 264.379 271.439 269.137 284.659 269.994C297.878 270.851 311.055 267.767 322.522 261.133C337.879 252.248 349.083 237.631 353.671 220.491C358.26 203.352 355.858 185.092 346.994 169.722ZM243.314 229.597C238.093 220.554 235.67 210.165 236.352 199.744C237.035 189.324 240.792 179.34 247.149 171.054C253.505 162.769 262.176 156.555 272.064 153.197C281.953 149.84 292.615 149.49 302.702 152.192C312.789 154.894 321.849 160.526 328.735 168.377C335.621 176.227 340.025 185.944 341.389 196.297C342.753 206.65 341.017 217.176 336.399 226.542C331.782 235.909 324.491 243.696 315.448 248.918C309.443 252.386 302.815 254.637 295.941 255.543C289.067 256.449 282.082 255.992 275.384 254.197C268.687 252.403 262.408 249.307 256.908 245.086C251.407 240.865 246.792 235.602 243.325 229.597H243.314Z" fill="black"/>
<path d="M135.066 272.042L143.339 273.964L136.481 279.083C136.481 279.083 131.567 276.858 131.34 273.37L135.066 272.042Z" fill="#E4897B"/>
<path d="M147.766 279.472L141.805 283.446L136.48 279.083L143.338 273.975L147.766 279.472Z" fill="#E4897B"/>
<path d="M241.348 238.443C232.557 244.923 223.539 251.079 214.478 257.094C205.417 263.11 196.237 268.974 187.014 274.731C177.79 280.487 168.481 286.125 159.139 291.6C154.473 294.387 149.764 297.087 145.099 299.83C142.781 301.305 140.254 302.423 137.604 303.145C136.189 303.521 134.743 303.763 133.284 303.869C131.663 304.001 130.033 303.918 128.434 303.621C127.292 303.395 126.206 302.946 125.237 302.299C124.269 301.653 123.437 300.822 122.79 299.854C122.143 298.886 121.693 297.8 121.467 296.658C121.24 295.516 121.24 294.34 121.468 293.199C121.542 292.832 121.643 292.471 121.771 292.119C122.292 290.588 123.019 289.134 123.931 287.799C124.744 286.598 125.67 285.477 126.696 284.451C128.649 282.517 130.88 280.886 133.316 279.612C138.036 276.923 142.723 274.212 147.475 271.545C156.936 266.199 166.483 260.993 176.052 255.852C185.62 250.711 195.308 245.733 205.05 240.873C214.791 236.013 224.608 231.282 234.631 226.919C236.143 226.25 237.849 226.164 239.422 226.677C240.994 227.189 242.322 228.265 243.149 229.696C243.977 231.128 244.246 232.815 243.906 234.433C243.566 236.052 242.639 237.487 241.305 238.464L241.348 238.443Z" fill="#0095FF"/>
<path opacity="0.1" d="M241.348 238.443C232.557 244.923 223.539 251.079 214.478 257.094C205.417 263.11 196.237 268.974 187.014 274.731C177.79 280.487 168.481 286.125 159.139 291.6C154.473 294.387 149.764 297.087 145.099 299.83C142.781 301.305 140.254 302.423 137.604 303.145C136.189 303.521 134.743 303.763 133.284 303.869C131.663 304.001 130.033 303.918 128.434 303.621C127.292 303.395 126.206 302.946 125.237 302.299C124.269 301.653 123.437 300.822 122.79 299.854C122.143 298.886 121.693 297.8 121.467 296.658C121.24 295.516 121.24 294.34 121.468 293.199C121.542 292.832 121.643 292.471 121.771 292.119C122.292 290.588 123.019 289.134 123.931 287.799C124.744 286.598 125.67 285.477 126.696 284.451C128.649 282.517 130.88 280.886 133.316 279.612C138.036 276.923 142.723 274.212 147.475 271.545C156.936 266.199 166.483 260.993 176.052 255.852C185.62 250.711 195.308 245.733 205.05 240.873C214.791 236.013 224.608 231.282 234.631 226.919C236.143 226.25 237.849 226.164 239.422 226.677C240.994 227.189 242.322 228.265 243.149 229.696C243.977 231.128 244.246 232.815 243.906 234.433C243.566 236.052 242.639 237.487 241.305 238.464L241.348 238.443Z" fill="black"/>
<path d="M147.054 220.882C146.514 221.757 145.898 222.815 145.315 223.809C144.732 224.802 144.159 225.839 143.619 226.887C142.539 228.949 141.459 231.045 140.379 233.172C139.299 235.3 138.425 237.492 137.539 239.652C137.107 240.732 136.653 241.812 136.254 242.892L135.649 244.545C135.53 244.858 135.509 244.987 135.433 245.214C135.357 245.441 135.325 245.657 135.26 245.873C134.839 248.007 134.625 250.177 134.623 252.353C134.569 254.675 134.623 257.04 134.753 259.427C134.882 261.814 135.012 264.211 135.228 266.609C135.444 269.007 135.66 271.447 135.887 273.823L131.718 274.677C130.983 272.268 130.411 269.871 129.839 267.441C129.266 265.011 128.834 262.57 128.413 260.086C127.992 257.602 127.711 255.107 127.527 252.526C127.303 249.823 127.372 247.103 127.733 244.415C127.797 244.037 127.851 243.681 127.949 243.335C128.046 242.989 128.143 242.503 128.229 242.255L128.759 240.419C129.104 239.199 129.504 237.989 129.914 236.79C130.746 234.382 131.653 232.017 132.668 229.684C133.683 227.351 134.763 225.072 135.908 222.826C136.502 221.746 137.129 220.59 137.766 219.478C138.403 218.365 139.04 217.318 139.839 216.141L147.054 220.882Z" fill="#E4897B"/>
<path d="M142.441 443.88C141.713 443.857 140.988 443.756 140.281 443.578C140.243 443.571 140.209 443.553 140.181 443.526C140.154 443.499 140.136 443.464 140.13 443.426C140.123 443.387 140.128 443.347 140.143 443.311C140.158 443.275 140.184 443.243 140.216 443.221C140.508 443.027 143.057 441.385 144.04 441.828C144.149 441.878 144.243 441.957 144.311 442.055C144.379 442.154 144.42 442.27 144.428 442.39C144.479 442.582 144.476 442.785 144.419 442.975C144.361 443.166 144.253 443.337 144.104 443.47C143.618 443.803 143.027 443.949 142.441 443.88ZM140.789 443.297C142.258 443.588 143.359 443.534 143.78 443.146C143.873 443.057 143.941 442.945 143.977 442.822C144.013 442.699 144.016 442.568 143.986 442.444C143.984 442.388 143.967 442.335 143.937 442.289C143.906 442.243 143.863 442.207 143.813 442.184C143.305 441.958 141.826 442.67 140.789 443.297Z" fill="#0095FF"/>
<path d="M140.271 443.588C140.239 443.598 140.205 443.598 140.174 443.588C140.143 443.572 140.117 443.547 140.1 443.516C140.083 443.486 140.074 443.451 140.076 443.416C140.076 443.318 140.076 440.899 140.994 440.089C141.108 439.987 141.242 439.911 141.387 439.864C141.532 439.817 141.685 439.802 141.837 439.819C141.996 439.821 142.15 439.878 142.272 439.981C142.394 440.083 142.477 440.224 142.506 440.381C142.701 441.32 141.167 443.135 140.346 443.621C140.319 443.616 140.293 443.605 140.271 443.588ZM141.707 440.176C141.544 440.177 141.386 440.239 141.264 440.348C140.733 441.131 140.461 442.06 140.487 443.005C141.286 442.357 142.236 440.996 142.118 440.424C142.118 440.327 142.042 440.219 141.794 440.186L141.707 440.176Z" fill="#0095FF"/>
<path d="M180.696 443.88C179.806 443.866 178.92 443.765 178.05 443.578C178.009 443.573 177.97 443.554 177.941 443.525C177.911 443.496 177.893 443.457 177.888 443.416C177.883 443.374 177.891 443.333 177.91 443.296C177.93 443.26 177.959 443.23 177.996 443.21C178.374 443.016 181.722 441.31 182.748 441.871C182.847 441.922 182.931 441.997 182.991 442.09C183.052 442.183 183.087 442.29 183.094 442.4C183.117 442.578 183.096 442.76 183.032 442.928C182.968 443.095 182.863 443.245 182.726 443.362C182.129 443.762 181.412 443.945 180.696 443.88ZM178.709 443.297C180.577 443.61 181.949 443.524 182.467 443.07C182.553 442.99 182.619 442.89 182.658 442.779C182.698 442.668 182.71 442.549 182.694 442.433C182.694 442.388 182.681 442.345 182.659 442.307C182.636 442.269 182.603 442.238 182.564 442.217C182.003 441.914 180.08 442.638 178.709 443.297Z" fill="#0095FF"/>
<path d="M178.082 443.589C178.065 443.596 178.046 443.599 178.028 443.599C178.009 443.599 177.991 443.596 177.974 443.589C177.943 443.573 177.917 443.548 177.902 443.517C177.886 443.485 177.881 443.45 177.887 443.416C177.887 443.319 178.092 441.051 179.14 440.176C179.441 439.924 179.829 439.8 180.22 439.83C180.771 439.884 180.922 440.165 180.965 440.392C181.116 441.342 179.14 443.157 178.136 443.632L178.082 443.589ZM180.09 440.176C179.837 440.178 179.592 440.27 179.399 440.435C178.78 441.166 178.402 442.072 178.319 443.027C179.334 442.411 180.684 440.986 180.587 440.413C180.587 440.413 180.587 440.219 180.198 440.187L180.09 440.176Z" fill="#0095FF"/>
<path d="M159.84 188.449C160.499 193.493 162 203.72 158.35 206.809C158.35 206.809 159.43 211.95 168.631 212.544C178.805 213.203 173.815 207.814 173.815 207.814C168.35 206.129 168.761 202.014 169.981 198.212L159.84 188.449Z" fill="#E4897B"/>
<path d="M178.707 178.2C178.643 178.199 178.579 178.18 178.524 178.146C178.477 178.122 178.435 178.089 178.401 178.049C178.367 178.008 178.342 177.962 178.327 177.911C178.312 177.861 178.307 177.807 178.313 177.755C178.319 177.703 178.336 177.652 178.362 177.606C178.642 177.035 179.057 176.54 179.571 176.164C180.084 175.788 180.681 175.542 181.31 175.446C181.407 175.45 181.499 175.489 181.569 175.555C181.64 175.622 181.683 175.711 181.693 175.807C181.702 175.904 181.676 176 181.619 176.079C181.563 176.157 181.48 176.213 181.386 176.235C180.893 176.321 180.428 176.52 180.025 176.816C179.622 177.112 179.293 177.497 179.064 177.941C179.033 178.012 178.984 178.074 178.921 178.12C178.858 178.165 178.785 178.193 178.707 178.2Z" fill="#263238"/>
<path d="M181.613 182.628C182.357 184.111 183.302 185.485 184.421 186.71C184.1 186.989 183.723 187.195 183.314 187.312C182.905 187.43 182.476 187.457 182.056 187.391L181.613 182.628Z" fill="#DE5753"/>
<path d="M180.901 181.527C180.966 182.207 181.377 182.715 181.809 182.671C182.241 182.628 182.565 182.056 182.5 181.375C182.435 180.695 182.025 180.187 181.582 180.231C181.139 180.274 180.837 180.857 180.901 181.527Z" fill="#263238"/>
<path d="M181.441 180.285L183.018 179.669C183.018 179.669 182.262 181.008 181.441 180.285Z" fill="#263238"/>
<path d="M168.838 443.383H177.251L177.813 423.922H169.399L168.838 443.383Z" fill="#E4897B"/>
<path d="M130.637 443.383H139.05L141.75 423.922H133.348L130.637 443.383Z" fill="#E4897B"/>
<path d="M139.569 442.411H130.119C129.957 442.409 129.8 442.466 129.677 442.572C129.554 442.677 129.473 442.823 129.45 442.984L128.37 450.457C128.349 450.646 128.367 450.837 128.425 451.018C128.482 451.199 128.578 451.365 128.704 451.507C128.83 451.649 128.985 451.762 129.158 451.84C129.332 451.918 129.519 451.958 129.709 451.958C132.949 451.904 134.591 451.71 138.749 451.71C141.297 451.71 145.034 451.969 148.566 451.969C152.097 451.969 152.281 448.481 150.812 448.168C144.224 446.753 143.187 444.798 140.963 442.93C140.574 442.597 140.081 442.414 139.569 442.411Z" fill="#263238"/>
<path d="M177.532 442.411H168.093C167.93 442.407 167.772 442.463 167.648 442.569C167.525 442.675 167.444 442.823 167.423 442.984L166.343 450.457C166.324 450.647 166.344 450.838 166.403 451.019C166.462 451.2 166.558 451.366 166.685 451.508C166.812 451.649 166.968 451.762 167.141 451.84C167.315 451.918 167.503 451.958 167.693 451.959C170.933 451.905 172.575 451.71 176.722 451.71C179.282 451.71 184.563 451.969 188.094 451.969C191.626 451.969 191.81 448.481 190.341 448.168C183.753 446.753 181.161 444.798 178.936 442.93C178.545 442.595 178.047 442.411 177.532 442.411Z" fill="#263238"/>
<path d="M177.801 423.922L177.521 433.955H169.107L169.399 423.922H177.801Z" fill="#CE6F64"/>
<path d="M133.339 423.922H141.752L140.359 433.955H131.945L133.339 423.922Z" fill="#CE6F64"/>
<path d="M150.639 222.178C149.042 224.672 147.193 226.996 145.12 229.111L144.159 228.474L133.51 221.4C133.51 221.4 139.32 208.44 143.694 207.781C147.874 207.112 150.919 211.432 152.334 216.054C152.874 217.728 151.978 219.996 150.639 222.178Z" fill="#0095FF"/>
<path opacity="0.6" d="M150.639 222.178C149.042 224.672 147.193 226.996 145.12 229.111L144.159 228.474L133.51 221.4C133.51 221.4 139.32 208.44 143.694 207.781C147.874 207.112 150.919 211.432 152.334 216.054C152.874 217.728 151.978 219.996 150.639 222.178Z" fill="#FAFAFA"/>
<path d="M150.638 222.178C149.042 224.672 147.192 226.996 145.119 229.111L144.158 228.474C144.633 224.586 146.145 220.731 147.873 219.51C148.932 219.618 149.871 220.741 150.638 222.178Z" fill="#0095FF"/>
<path opacity="0.4" d="M150.638 222.178C149.042 224.672 147.192 226.996 145.119 229.111L144.158 228.474C144.633 224.586 146.145 220.731 147.873 219.51C148.932 219.618 149.871 220.741 150.638 222.178Z" fill="#FAFAFA"/>
<path d="M187.068 228.647C186.561 231.887 185.902 235.699 185.016 240.224C183.936 246.013 182.424 252.957 180.513 261.263L146.439 259.103C147.907 245.268 148.48 236.714 143.695 207.824C148.533 207.149 153.413 206.827 158.297 206.863C163.469 206.829 168.638 207.165 173.763 207.867C180.372 208.947 187.803 210.935 187.803 210.935C187.803 210.935 189.703 211.68 187.068 228.647Z" fill="#0095FF"/>
<path opacity="0.6" d="M187.068 228.647C186.561 231.887 185.902 235.699 185.016 240.224C183.936 246.013 182.424 252.957 180.513 261.263L146.439 259.103C147.907 245.268 148.48 236.714 143.695 207.824C148.533 207.149 153.413 206.827 158.297 206.863C163.469 206.829 168.638 207.165 173.763 207.867C180.372 208.947 187.803 210.935 187.803 210.935C187.803 210.935 189.703 211.68 187.068 228.647Z" fill="#FAFAFA"/>
<path d="M187.068 228.647C186.561 231.887 185.902 235.699 185.016 240.224C183.142 236.238 181.586 232.111 180.361 227.88H186.69L187.068 228.647Z" fill="#0095FF"/>
<path opacity="0.4" d="M187.068 228.647C186.561 231.887 185.902 235.699 185.016 240.224C183.142 236.238 181.586 232.111 180.361 227.88H186.69L187.068 228.647Z" fill="#FAFAFA"/>
<path d="M157.983 181.354C159.268 189.594 159.646 193.115 164.236 196.971C171.137 202.781 180.976 199.39 182.175 190.923C183.255 183.309 180.965 171.105 172.53 168.577C170.675 168.008 168.705 167.923 166.807 168.331C164.91 168.738 163.148 169.624 161.69 170.905C160.232 172.185 159.126 173.818 158.477 175.647C157.828 177.476 157.658 179.44 157.983 181.354Z" fill="#E4897B"/>
<path d="M171.504 260.68C171.504 260.68 170.964 275.681 169.668 294.603C168.588 310.479 166.958 329.098 164.679 343.937L164.614 344.347C160.521 370.613 142.388 432 142.388 432H130.918C130.918 432 140.368 372.708 142.442 346.68C147.701 280.941 134.525 273.499 146.438 259.006L171.504 260.68Z" fill="#0095FF"/>
<path opacity="0.3" d="M171.504 260.68C171.504 260.68 170.964 275.681 169.668 294.603C168.588 310.479 166.958 329.098 164.679 343.937L164.614 344.347C160.521 370.613 142.388 432 142.388 432H130.918C130.918 432 140.368 372.708 142.442 346.68C147.701 280.941 134.525 273.499 146.438 259.006L171.504 260.68Z" fill="black"/>
<path d="M169.669 294.602C168.589 310.478 166.959 329.097 164.68 343.937C160.803 324.659 154.431 296.503 162.984 278.057C165.025 283.295 167.401 289.213 169.669 294.602Z" fill="#0095FF"/>
<path opacity="0.4" d="M169.669 294.602C168.589 310.478 166.959 329.097 164.68 343.937C160.803 324.659 154.431 296.503 162.984 278.057C165.025 283.295 167.401 289.213 169.669 294.602Z" fill="black"/>
<path d="M180.512 261.274C180.512 261.274 190.232 318.881 189.648 344.52C189.076 371.196 179.302 432 179.302 432H167.94C167.94 432 169.733 372.741 168.729 346.551C167.649 317.995 155.553 259.643 155.553 259.643L180.512 261.274Z" fill="#0095FF"/>
<path opacity="0.3" d="M180.512 261.274C180.512 261.274 190.232 318.881 189.648 344.52C189.076 371.196 179.302 432 179.302 432H167.94C167.94 432 169.733 372.741 168.729 346.551C167.649 317.995 155.553 259.643 155.553 259.643L180.512 261.274Z" fill="black"/>
<path d="M165.997 432.54H181.236L182.424 427.432L165.457 427.55L165.997 432.54Z" fill="#263238"/>
<path d="M129.256 432.54H144.495L145.683 427.432L129.364 427.55L129.256 432.54Z" fill="#263238"/>
<path d="M146.049 257.04L144.321 259.999C144.18 260.226 144.45 260.485 144.839 260.507L180.576 262.829C180.879 262.829 181.149 262.721 181.181 262.526L181.689 259.492C181.689 259.286 181.462 259.092 181.127 259.07L146.567 256.824C146.47 256.82 146.373 256.837 146.284 256.874C146.194 256.911 146.114 256.968 146.049 257.04Z" fill="#263238"/>
<path d="M150.434 261.187L149.516 261.122C149.332 261.122 149.192 261.004 149.213 260.896L149.904 256.954C149.904 256.846 150.088 256.759 150.272 256.77L151.2 256.824C151.384 256.824 151.514 256.943 151.503 257.062L150.812 260.993C150.79 261.112 150.617 261.198 150.434 261.187Z" fill="#0095FF"/>
<path opacity="0.3" d="M150.434 261.187L149.516 261.122C149.332 261.122 149.192 261.004 149.213 260.896L149.904 256.954C149.904 256.846 150.088 256.759 150.272 256.77L151.2 256.824C151.384 256.824 151.514 256.943 151.503 257.062L150.812 260.993C150.79 261.112 150.617 261.198 150.434 261.187Z" fill="black"/>
<path d="M172.801 262.634L171.883 262.58C171.699 262.58 171.559 262.462 171.58 262.343L172.272 258.412C172.272 258.293 172.455 258.217 172.65 258.228L173.568 258.282C173.751 258.282 173.892 258.401 173.87 258.52L173.179 262.451C173.19 262.57 173.017 262.645 172.801 262.634Z" fill="#0095FF"/>
<path opacity="0.3" d="M172.801 262.634L171.883 262.58C171.699 262.58 171.559 262.462 171.58 262.343L172.272 258.412C172.272 258.293 172.455 258.217 172.65 258.228L173.568 258.282C173.751 258.282 173.892 258.401 173.87 258.52L173.179 262.451C173.19 262.57 173.017 262.645 172.801 262.634Z" fill="black"/>
<path d="M189.736 219.575C191.032 223.895 192.263 228.269 193.462 232.632L197.08 245.689L197.534 247.309L197.652 247.709L197.706 247.914V248.022C197.745 248.165 197.792 248.306 197.847 248.443C198.112 249.1 198.476 249.711 198.927 250.258C200.216 251.618 201.71 252.77 203.355 253.67C207.122 255.709 211.107 257.318 215.235 258.466L214.608 262.678C209.766 262.428 204.995 261.396 200.482 259.621C197.985 258.642 195.684 257.223 193.689 255.431C192.546 254.371 191.596 253.122 190.881 251.737C190.688 251.363 190.518 250.977 190.373 250.582L190.254 250.29L190.179 250.085L190.038 249.685L189.466 248.054C187.954 243.734 186.55 239.414 185.222 235.03C183.893 230.645 182.586 226.325 181.398 221.918L189.736 219.575Z" fill="#E4897B"/>
<path d="M187.802 210.891C192.122 212.306 196.658 226.433 196.658 226.433L181.062 233.15C181.062 233.15 174.583 217.296 177.455 213.71C180.328 210.125 182.845 209.271 187.802 210.891Z" fill="#0095FF"/>
<path opacity="0.6" d="M187.802 210.891C192.122 212.306 196.658 226.433 196.658 226.433L181.062 233.15C181.062 233.15 174.583 217.296 177.455 213.71C180.328 210.125 182.845 209.271 187.802 210.891Z" fill="#FAFAFA"/>
<path d="M179.464 168.102C176.71 164.7 155.434 162.27 154.3 171.536C146.74 176.828 153.911 190.501 154.991 193.979C149.775 195.426 132.97 201.172 145.271 212.339C157.572 223.506 176.019 221.605 179.626 210.049C182.153 201.971 174.129 188.449 174.301 183.719C174.474 178.988 184.183 173.88 179.464 168.102Z" fill="#263238"/>
<path d="M156.483 195.685C156.443 195.686 156.404 195.678 156.369 195.661C156.333 195.644 156.302 195.619 156.278 195.588C154.323 193.212 147.519 180.727 149.906 174.787C150.276 173.865 150.903 173.07 151.713 172.495C152.524 171.921 153.482 171.592 154.474 171.547C154.509 171.543 154.544 171.545 154.578 171.555C154.612 171.565 154.644 171.581 154.671 171.603C154.698 171.625 154.721 171.653 154.737 171.684C154.753 171.715 154.763 171.75 154.766 171.785C154.775 171.855 154.756 171.926 154.714 171.982C154.672 172.039 154.609 172.076 154.539 172.087C153.647 172.12 152.783 172.408 152.05 172.917C151.317 173.427 150.745 174.135 150.402 174.96C148.102 180.705 154.776 192.899 156.688 195.231C156.722 195.27 156.744 195.317 156.752 195.367C156.759 195.418 156.751 195.47 156.729 195.516C156.707 195.562 156.672 195.601 156.628 195.627C156.585 195.653 156.534 195.666 156.483 195.663V195.685Z" fill="#263238"/>
<path d="M172.617 183.211C172.858 184.788 173.618 186.24 174.777 187.337C176.31 188.806 177.757 187.801 177.898 185.933C178.027 184.259 177.379 181.483 175.565 180.706C173.751 179.928 172.39 181.343 172.617 183.211Z" fill="#E4897B"/>
<path d="M209.942 257.299L216.076 255.215L215.115 262.591C215.115 262.591 212.696 263.671 209.564 260.95L206.572 259.038L208.927 257.753C209.249 257.569 209.589 257.417 209.942 257.299Z" fill="#E4897B"/>
<path d="M220.364 255.193L218.485 261.641L215.115 262.581L216.076 255.215L220.364 255.193Z" fill="#E4897B"/>
</svg>
